<svg width="412" height="413" viewBox="0 0 412 413" fill="none" xmlns="http://www.w3.org/2000/svg">
<circle cx="206" cy="309" r="103" fill="white"/>
<circle cx="206" cy="103" r="103" fill="white"/>
<path d="M309 0C336.317 0 362.516 10.8518 381.832 30.168C401.148 49.4843 412 75.6827 412 103C412 130.317 401.148 156.516 381.832 175.832C362.516 195.148 336.317 206 309 206L309 103L309 0Z" fill="white"/>
<path d="M103.014 412.014C75.6966 412.014 49.4981 401.162 30.1819 381.846C10.8656 362.53 0.0138847 336.331 0.0138855 309.014C0.0138863 281.697 10.8656 255.498 30.1819 236.182C49.4981 216.866 75.6966 206.014 103.014 206.014V309.014L103.014 412.014Z" fill="white"/>
</svg>
