<svg width="156" height="199" viewBox="0 0 156 199" fill="none" xmlns="http://www.w3.org/2000/svg">
<path d="M131.04 105.719H24.96V111.938H131.04V105.719Z" fill="black"/>
<path d="M137.28 24.875H131.04V105.719H137.28V24.875Z" fill="black"/>
<path d="M87.36 80.8438V87.0625H93.6V80.8438H87.36Z" fill="black"/>
<path d="M62.4 93.2813H87.36V87.0625H62.4V93.2813Z" fill="black"/>
<path d="M62.4 80.8438H56.16V87.0625H62.4V80.8438Z" fill="black"/>
<path d="M74.88 43.5313H81.12V74.625H68.64V68.4063H74.88V43.5313Z" fill="black"/>
<path d="M49.92 43.5313H56.16V55.9688H49.92V43.5313Z" fill="black"/>
<path d="M93.6 43.5313H99.84V55.9688H93.6V43.5313Z" fill="black"/>
<path d="M131.04 18.6563H24.96V24.875H131.04V18.6563Z" fill="black"/>
<path d="M18.72 24.875V105.719H24.96V24.875H18.72Z" fill="black"/>
<path d="M0 12.4375V167.906H6.24V12.4375H0Z" fill="black"/>
<path d="M12.48 6.21875H6.24V12.4375H12.48V6.21875Z" fill="black"/>
<path d="M143.52 6.21875V0H12.48V6.21875H143.52Z" fill="black"/>
<path d="M143.52 12.4375H149.76V6.21875H143.52V12.4375Z" fill="black"/>
<path d="M156 167.906V12.4375H149.76V167.906H156Z" fill="black"/>
<path fill-rule="evenodd" clip-rule="evenodd" d="M6.24 199H149.76V167.906H6.24V199ZM12.48 192.781V174.125H143.52V192.781H12.48Z" fill="black"/>
<path d="M18.72 143.031H31.2V149.25H18.72V143.031Z" fill="black"/>
<path d="M93.6 136.813V143.031H131.04V136.813H93.6Z" fill="black"/>
<path fill-rule="evenodd" clip-rule="evenodd" d="M6.24 12.4375V167.906H149.76V12.4375H143.52V6.21875H12.48V12.4375H6.24ZM137.28 24.875V105.719H131.04V111.938H24.96V105.719H18.72V24.875H24.96V18.6563H131.04V24.875H137.28ZM31.2 143.031H18.72V149.25H31.2V143.031ZM93.6 143.031V136.813H131.04V143.031H93.6Z" fill="white"/>
<path fill-rule="evenodd" clip-rule="evenodd" d="M24.96 105.719H131.04V24.875H24.96V105.719ZM56.16 43.5313H49.92V55.9688H56.16V43.5313ZM81.12 43.5313H74.88V68.4063H68.64V74.625H81.12V43.5313ZM99.84 43.5313H93.6V55.9688H99.84V43.5313ZM87.36 93.2813H62.4V87.0625H56.16V80.8438H62.4V87.0625H87.36V80.8438H93.6V87.0625H87.36V93.2813Z" fill="white"/>
<path d="M12.48 174.125V192.781H143.52V174.125H12.48Z" fill="white"/>
</svg>
